<svg height="512pt" viewBox="-109 0 512 512" width="512pt" xmlns="http://www.w3.org/2000/svg"><path d="m196.296875 380.179688 59.511719 31.980468 38.222656-268.753906-82.773438 30.179688zm0 0"/><path d="m51.542969 435.835938 72.71875 76.164062-21.019531-101.554688zm0 0"/><path d="m171.964844 512 68.253906-74.242188-49.238281-26.566406zm0 0"/><path d="m114.117188 177.832031 13.316406 195.867188h39.273437l14.183594-195.867188zm0 0"/><path d="m161.789062 403.679688h-29.195312l15.121094 86.691406zm0 0"/><path d="m118.550781 147.851562h58.0625l-28.738281-116.277343zm0 0"/><path d="m83.773438 173.5625-83.773438-30.5 37.839844 266.074219 59.949218-29.503907zm0 0"/><path d="m127.390625 0-119.027344 114.214844 80.003907 29.164062zm0 0"/><path d="m285.992188 114.4375-116.886719-114.4375 37.707031 143.324219zm0 0"/></svg>