<svg height="512pt" viewBox="-106 0 512 512" width="512pt" xmlns="http://www.w3.org/2000/svg"><path d="m149.867188 0-149.867188 120.078125 43.140625 303.328125 106.726563 88.59375 106.726562-88.59375 43.140625-303.332031zm59.0625 140.566406-27.265626-76.671875 74.582032 59.753907zm-165.359376-16.984375 74.988282-60.078125-26.859375 77.085938zm106.441407-59.226562 28.582031 80.390625h-56.597656zm-42.75 342.605469 13.0625 41.550781-36.023438-29.902344zm29.421875-6.386719h26.367187l-13.183593 41.953125zm55.789062 6.386719 22.960938 11.648437-36.023438 29.902344zm-22.9375-36.367188h-39.273437l-13.316407-195.867188h66.773438zm-134.671875-218.289062 51.75 18.285156 14.015625 206.117187-31.570312 16.015625zm195.8125 240.417968-31.527343-15.996094 14.929687-206.164062 50.777344-18.15625zm0 0"/></svg>